<svg version="1.0" xmlns="http://www.w3.org/2000/svg" width="200px" height="70px" viewBox="0 0 8660 2240" preserveAspectRatio="xMidYMid meet">
    <g id="layer101" fill="#ffffff" stroke="none">
    <path d="M6444 1940 c-19 -7 -22 -19 -29 -110 -4 -56 -3 -386 1 -732 l7 -630 46 -28 c25 -16 59 -38 74 -51 33 -25 100 -35 140 -20 l27 11 0 230 0 231 63 -73 c35 -40 86 -101 113 -136 38 -47 71 -74 130 -108 51 -29 86 -43 100 -40 31 8 74 56 74 83 0 15 -39 74 -109 162 -158 201 -148 181 -115 238 15 26 84 133 152 238 241 365 292 448 292 470 0 30 -41 65 -142 119 -68 37 -91 45 -105 37 -17 -8 -68 -86 -349 -531 l-79 -125 -6 160 c-4 88 -7 237 -8 330 -1 94 -5 175 -9 181 -4 6 -43 32 -87 57 -81 48 -130 58 -181 37z m112 -54 c32 -24 7 -30 -28 -7 -27 17 -29 21 -12 21 11 0 29 -6 40 -14z m-16 -749 c0 -373 -3 -677 -7 -675 -5 2 -20 10 -35 17 l-28 14 0 172 c0 94 -3 403 -7 685 l-6 513 41 -23 42 -24 0 -679z m118 684 c11 -6 15 -83 19 -362 l6 -354 50 -52 c57 -60 90 -68 131 -30 13 12 102 146 197 297 94 151 190 301 211 333 38 56 41 58 61 44 12 -8 22 -21 21 -29 -1 -7 -103 -169 -227 -360 -199 -305 -227 -352 -227 -387 0 -43 -1 -42 157 -243 45 -58 83 -110 83 -114 0 -4 -8 -12 -17 -19 -14 -11 -34 9 -151 149 -216 259 -244 283 -286 240 -14 -13 -16 -52 -16 -270 l0 -255 -37 3 -38 3 -3 695 c-1 382 0 701 3 708 5 14 43 16 63 3z m567 -62 l35 -21 -22 -37 c-48 -78 -327 -520 -368 -583 -25 -38 -50 -68 -55 -68 -6 0 -24 13 -39 29 l-28 29 49 74 c28 40 108 165 178 278 138 220 203 320 210 320 2 0 20 -9 40 -21z"/>
    <path d="M7521 1930 c-18 -4 -41 -15 -49 -24 -19 -19 -21 -11 103 -471 40 -148 114 -423 165 -610 60 -225 97 -344 108 -353 53 -41 146 -92 176 -97 33 -7 101 8 110 24 10 15 366 1360 366 1380 0 13 -15 30 -40 46 -69 44 -153 83 -193 90 -35 7 -38 6 -51 -26 -7 -19 -35 -124 -61 -234 -26 -110 -53 -206 -59 -214 -8 -10 -30 -12 -96 -6 -47 3 -100 9 -117 12 -38 6 -35 -3 -88 238 -20 89 -42 166 -51 176 -9 10 -41 32 -70 49 -55 31 -89 35 -153 20z m104 -52 l26 -12 -22 -12 c-19 -9 -29 -9 -56 4 -18 9 -33 19 -33 24 0 12 55 10 85 -4z m705 -84 c0 -14 -90 -387 -95 -392 -8 -8 -84 39 -80 51 2 6 25 99 51 205 l46 192 39 -22 c21 -12 39 -27 39 -34z m-741 -21 c2 -10 81 -304 177 -653 95 -349 171 -636 169 -639 -11 -10 -54 32 -64 61 -5 18 -85 308 -176 643 -91 336 -168 619 -172 629 -5 19 -4 19 28 -2 19 -11 36 -29 38 -39z m139 -15 c31 -165 86 -372 106 -395 19 -21 35 -25 156 -38 197 -21 242 -20 268 8 11 12 26 45 32 72 6 28 29 126 52 218 l40 169 27 -7 c14 -3 29 -10 34 -14 4 -4 -73 -308 -171 -677 l-179 -669 -34 -3 c-19 -1 -39 1 -45 5 -13 9 -366 1301 -368 1346 -1 25 4 32 24 38 44 12 46 10 58 -53z m292 -374 c30 -3 67 -1 81 4 21 8 32 6 55 -9 l29 -19 -35 0 c-63 0 -255 22 -270 32 -15 9 -3 8 140 -8z"/>
    <path d="M7866 1248 c-20 -31 -20 -28 65 -341 33 -122 67 -230 76 -239 19 -22 66 -23 86 -4 22 22 137 451 137 512 0 66 -35 80 -226 90 l-122 7 -16 -25z m181 -32 c3 -3 -64 -266 -69 -272 -7 -7 -77 270 -71 280 5 7 132 1 140 -8z m118 -20 c19 -14 19 -18 -19 -173 -55 -224 -77 -303 -85 -303 -19 1 -34 22 -44 65 -12 43 -10 58 20 174 66 260 63 251 87 251 12 0 31 -6 41 -14z"/>
    <path d="M143 1910 c-27 -11 -29 -42 -13 -277 5 -81 23 -366 40 -633 27 -421 33 -487 48 -498 9 -7 51 -34 92 -60 67 -42 81 -47 132 -47 31 0 62 5 68 11 5 5 70 219 142 475 l132 464 53 -265 c29 -146 67 -332 84 -413 l32 -148 83 -55 c76 -50 86 -54 141 -54 33 0 66 6 75 12 13 11 26 110 68 523 78 763 86 855 80 864 -11 17 -168 100 -201 106 -26 5 -40 2 -56 -12 -19 -16 -24 -43 -47 -258 -39 -360 -33 -350 -77 -135 -43 212 -34 199 -182 275 -89 45 -139 55 -176 35 -23 -12 -35 -40 -137 -335 -49 -142 -83 -228 -84 -210 -2 97 -30 524 -36 538 -3 10 -38 36 -77 59 -75 43 -140 57 -184 38z m102 -52 c14 -6 25 -15 25 -20 0 -5 -13 -2 -30 7 -45 23 -41 34 5 13z m-22 -60 c19 -14 16 22 62 -743 14 -231 28 -451 31 -488 l6 -69 -30 16 c-17 9 -33 20 -36 25 -7 11 -86 1162 -86 1259 0 35 7 35 53 0z m988 15 c35 -21 34 -12 9 -233 -11 -96 -29 -267 -40 -380 -25 -247 -30 -284 -40 -273 -5 4 -17 54 -29 111 -23 114 -26 59 29 562 11 102 20 195 20 208 0 26 12 28 51 5z m-852 -23 c7 0 20 -210 41 -665 5 -110 10 -212 10 -227 0 -53 60 -87 93 -53 9 8 48 113 88 232 110 332 208 607 222 621 10 10 23 9 65 -3 28 -9 54 -20 57 -25 3 -5 39 -181 81 -392 62 -322 78 -386 95 -400 12 -10 27 -18 35 -18 18 0 54 36 54 53 0 28 91 853 96 869 4 14 10 15 34 6 24 -8 28 -14 25 -36 -5 -30 -85 -808 -113 -1102 l-18 -185 -26 -9 c-18 -6 -35 -6 -51 1 -22 10 -30 44 -131 544 -59 294 -111 544 -117 557 -7 19 -15 23 -46 20 -61 -5 -43 46 -278 -793 -48 -170 -91 -318 -96 -327 -6 -12 -21 -18 -42 -18 -57 0 -64 13 -71 135 -5 98 -56 905 -71 1127 -5 77 -4 87 12 91 10 3 24 3 31 1 8 -2 17 -4 21 -4z m395 -90 c-26 -62 -81 -219 -171 -485 -57 -170 -107 -317 -110 -325 -8 -20 -21 67 -22 152 -1 60 9 98 94 347 52 154 104 301 115 326 l20 46 40 -22 c29 -16 39 -28 34 -39z m112 -207 c3 -21 49 -249 100 -506 52 -257 94 -470 94 -473 0 -9 -59 29 -63 40 -2 6 -44 209 -93 452 -82 409 -87 443 -76 482 16 52 29 54 38 5z"/>
    <path d="M2794 1910 c-12 -5 -25 -13 -28 -18 -10 -16 71 -1311 85 -1364 6 -22 17 -39 29 -43 11 -3 48 -25 82 -48 56 -37 70 -42 120 -42 38 0 62 5 72 15 8 8 55 159 105 335 157 557 168 593 175 565 3 -14 35 -170 71 -348 85 -420 91 -445 111 -457 9 -5 46 -29 83 -52 57 -37 74 -43 122 -43 95 0 87 -28 135 446 23 230 54 535 69 677 14 143 24 265 22 271 -3 7 -43 34 -89 61 -86 49 -153 64 -179 38 -6 -6 -25 -136 -43 -300 -36 -323 -31 -317 -76 -73 -33 179 -27 168 -137 233 -145 85 -216 87 -251 9 -9 -21 -53 -143 -97 -270 -44 -127 -82 -232 -86 -232 -3 0 -11 120 -18 268 -11 216 -16 270 -29 285 -9 10 -48 35 -88 57 -72 40 -115 48 -160 30z m102 -54 c29 -22 13 -26 -21 -5 -17 11 -23 19 -14 19 8 0 24 -6 35 -14z m984 -61 c5 -6 2 -62 -5 -125 -7 -63 -27 -252 -45 -420 -17 -168 -33 -312 -36 -320 -9 -27 -21 8 -40 121 l-18 105 33 305 c18 167 35 321 38 341 l6 38 29 -18 c16 -9 33 -22 38 -27z m-961 -558 c18 -304 36 -594 40 -644 3 -51 5 -93 2 -93 -2 0 -18 9 -35 20 l-32 19 -12 188 c-15 231 -59 931 -66 1031 l-4 72 37 -20 37 -21 33 -552z m94 480 c6 -71 20 -331 36 -676 7 -164 9 -175 31 -193 61 -49 72 -29 213 392 69 206 135 397 146 423 20 47 22 48 53 42 18 -4 46 -15 63 -24 l30 -17 76 -389 c79 -401 83 -415 129 -415 46 0 48 11 85 350 52 476 63 572 72 581 12 11 53 -8 53 -25 0 -8 -16 -162 -35 -343 -19 -180 -48 -470 -65 -643 -18 -173 -34 -317 -36 -320 -7 -6 -82 -6 -88 1 -3 3 -56 250 -117 550 -61 299 -115 549 -121 556 -6 7 -26 13 -44 13 -29 0 -36 -5 -53 -38 -11 -21 -42 -119 -70 -217 -41 -148 -193 -690 -235 -837 -6 -22 -18 -40 -29 -44 -23 -7 -87 4 -87 15 0 4 -16 244 -35 532 -51 780 -52 796 -29 801 44 9 51 -1 57 -75z m352 22 c24 -15 35 -27 32 -38 -3 -9 -34 -97 -70 -196 -35 -99 -97 -278 -136 -397 -40 -120 -76 -218 -81 -218 -4 0 -10 48 -12 108 l-5 107 89 260 c94 274 137 395 143 395 2 0 20 -10 40 -21z m241 -724 l100 -503 -31 15 -32 15 -88 437 c-49 240 -88 452 -88 472 0 38 20 85 31 74 4 -4 52 -233 108 -510z"/>
    <path d="M4576 1907 c-21 -15 -18 13 -85 -935 -11 -157 -23 -278 -30 -285 -7 -7 -45 -7 -133 0 -137 13 -150 9 -162 -48 -9 -48 8 -72 89 -122 l77 -47 146 -10 c81 -5 246 -13 368 -16 l221 -7 11 33 c14 37 15 79 4 97 -4 6 -40 30 -79 52 -68 39 -77 41 -152 41 l-80 0 5 33 c5 40 39 504 62 850 13 181 15 263 7 272 -5 7 -41 32 -80 55 -79 48 -155 63 -189 37z m99 -167 c-3 -30 -19 -257 -35 -505 -32 -475 -41 -595 -46 -595 -1 0 -19 10 -39 22 l-37 21 6 61 c6 63 24 331 51 746 9 129 18 261 21 292 l7 58 39 -22 39 -22 -6 -56z m122 52 c8 -5 1 -142 -28 -547 -51 -698 -49 -649 -21 -677 21 -21 33 -23 157 -26 134 -4 135 -4 135 -27 0 -13 -4 -26 -9 -29 -9 -6 -581 20 -649 29 -37 6 -43 9 -40 28 3 19 9 22 48 22 25 0 79 -4 122 -8 72 -7 78 -6 104 16 l28 24 27 394 c45 633 57 788 64 799 7 12 44 13 62 2z m-264 -1177 c20 -15 20 -16 2 -12 -11 3 -60 9 -110 13 -126 9 -137 21 -16 18 75 -2 107 -7 124 -19z m-273 -6 c23 -13 36 -27 33 -35 -7 -18 -83 20 -83 41 0 20 5 19 50 -6z m669 -9 c11 -7 -5 -9 -55 -10 -49 0 -76 5 -90 16 -18 14 -13 15 55 10 40 -4 81 -11 90 -16z"/>
    <path d="M1706 1891 c-25 -27 -35 -157 -81 -1031 -19 -370 -21 -338 16 -358 18 -9 53 -31 80 -48 60 -40 88 -43 478 -46 l305 -3 12 30 c21 48 16 125 -7 125 -5 0 -35 17 -66 38 l-58 37 -238 3 -238 3 6 92 c8 130 14 156 33 165 9 5 132 4 272 -1 l254 -9 18 22 c12 15 18 39 18 76 l0 54 -75 43 -75 44 -196 7 c-108 4 -203 10 -211 13 -13 5 -14 29 -8 157 10 229 22 338 37 347 20 13 47 11 273 -21 263 -38 261 -37 279 -1 19 36 29 102 19 117 -4 6 -40 29 -79 52 l-70 42 -277 35 c-324 41 -396 44 -421 16z m304 -51 c98 -14 113 -17 55 -13 -44 3 -110 6 -146 8 -36 1 -75 7 -85 13 -17 10 -15 11 11 11 17 0 91 -9 165 -19z m-232 -20 c36 -22 36 -17 22 -180 -10 -123 -31 -489 -51 -892 l-12 -246 -40 26 -39 26 6 95 c3 53 11 197 16 321 20 442 49 870 59 870 3 0 21 -9 39 -20z m430 -7 c-10 -2 -28 -2 -40 0 -13 2 -5 4 17 4 22 1 32 -1 23 -4z m70 -10 c-10 -2 -26 -2 -35 0 -10 3 -2 5 17 5 19 0 27 -2 18 -5z m70 -10 c-10 -2 -26 -2 -35 0 -10 3 -2 5 17 5 19 0 27 -2 18 -5z m-165 -28 c59 -8 157 -22 218 -31 l110 -17 -6 -26 c-4 -14 -10 -30 -15 -35 -5 -5 -71 1 -152 13 -313 46 -383 47 -407 4 -11 -21 -28 -216 -37 -438 -6 -138 -5 -152 13 -173 22 -28 78 -36 372 -51 101 -6 185 -12 188 -14 2 -3 1 -17 -3 -32 l-7 -27 -261 7 c-251 7 -262 7 -285 -12 -30 -24 -39 -83 -40 -255 -1 -159 -2 -158 157 -158 66 0 194 -3 286 -7 l167 -6 -3 -26 -3 -26 -340 3 c-241 3 -342 7 -347 15 -4 7 -5 21 -3 32 2 11 9 133 15 270 26 605 54 994 73 1008 14 10 160 1 310 -18z m32 -681 c143 -7 204 -23 90 -24 -115 0 -339 20 -350 31 -7 8 10 10 60 5 39 -3 129 -8 200 -12z m165 -511 c22 -12 -5 -13 -210 -8 -186 5 -238 9 -250 21 -13 13 13 14 210 8 165 -5 232 -10 250 -21z"/>
    <path d="M5332 1894 c-21 -18 -24 -32 -37 -214 -8 -107 -21 -332 -30 -500 -8 -168 -20 -380 -26 -472 -9 -162 -5 -208 19 -208 5 0 39 -19 78 -42 l69 -42 355 -7 c287 -5 358 -4 369 7 8 8 17 39 19 72 l4 58 -80 47 -79 47 -228 0 -227 0 4 120 c2 73 9 125 16 132 8 8 58 10 174 7 90 -2 212 -4 273 -4 l109 0 13 45 c21 71 11 93 -65 142 l-67 42 -140 7 c-77 4 -169 8 -205 8 -36 1 -71 5 -78 10 -11 6 -11 46 -2 217 13 237 19 273 42 288 12 7 83 1 263 -24 175 -24 251 -31 262 -24 21 13 45 81 41 118 -3 24 -15 36 -79 73 l-77 44 -233 30 c-129 16 -279 32 -334 36 -88 5 -103 3 -123 -13z m298 -54 c98 -14 113 -17 55 -13 -44 3 -110 6 -146 8 -36 1 -75 7 -85 13 -17 10 -15 11 11 11 17 0 91 -9 165 -19z m-206 -182 c-7 -78 -19 -278 -28 -443 -30 -559 -38 -710 -40 -712 -1 -1 -19 11 -40 28 -36 30 -37 33 -32 83 3 28 11 161 16 296 13 300 49 889 56 912 5 17 7 17 42 -1 l37 -19 -11 -144z m404 155 c-10 -2 -28 -2 -40 0 -13 2 -5 4 17 4 22 1 32 -1 23 -4z m70 -10 c-10 -2 -26 -2 -35 0 -10 3 -2 5 17 5 19 0 27 -2 18 -5z m70 -10 c-10 -2 -26 -2 -35 0 -10 3 -2 5 17 5 19 0 27 -2 18 -5z m-158 -28 c256 -34 320 -47 320 -64 0 -10 -6 -25 -13 -35 -13 -18 -19 -18 -158 3 -230 34 -340 43 -371 30 -45 -19 -46 -24 -74 -482 -7 -119 2 -157 41 -175 12 -6 105 -16 206 -22 323 -19 329 -20 329 -38 -1 -44 -4 -45 -267 -37 -138 4 -260 4 -272 0 -40 -12 -51 -54 -58 -224 -8 -207 -12 -201 155 -201 66 0 194 -3 285 -7 l167 -6 0 -30 0 -30 -337 8 c-186 3 -342 10 -347 15 -9 9 3 307 29 770 24 404 35 534 48 543 15 10 174 1 317 -18z m30 -681 c140 -7 197 -23 85 -24 -115 0 -339 20 -350 31 -7 8 11 10 65 5 41 -3 131 -8 200 -12z m160 -510 c22 -12 12 -13 -85 -12 -208 1 -368 12 -373 26 -6 18 422 5 458 -14z"/>
    </g>
</svg>